<svg xmlns="http://www.w3.org/2000/svg" width="22" height="22" viewBox="0 0 22 22">
    <g fill="none">
        <path d="M0 0H22V22H0z"/>
        <path fill="#DDD" d="M16 0c3.314 0 6 2.686 6 6v10c0 3.314-2.686 6-6 6H6c-3.314 0-6-2.686-6-6V6c0-3.314 2.686-6 6-6h10zM5.5 15c-.828 0-1.5.672-1.5 1.5S4.672 18 5.5 18 7 17.328 7 16.5 6.328 15 5.5 15zm11.246.488h-7c-.552 0-1 .447-1 1 0 .552.448 1 1 1h7c.553 0 1-.448 1-1 0-.553-.447-1-1-1zM5.5 10c-.828 0-1.5.672-1.5 1.5S4.672 13 5.5 13 7 12.328 7 11.5 6.328 10 5.5 10zm11.246.488h-7c-.552 0-1 .447-1 1 0 .552.448 1 1 1h7c.553 0 1-.448 1-1 0-.553-.447-1-1-1zM5.5 5C4.672 5 4 5.672 4 6.5S4.672 8 5.5 8 7 7.328 7 6.5 6.328 5 5.5 5zm11.246.488h-7c-.552 0-1 .447-1 1 0 .552.448 1 1 1h7c.553 0 1-.448 1-1 0-.553-.447-1-1-1z"/>
    </g>
</svg>
