<svg xmlns="http://www.w3.org/2000/svg" width="24" height="22" viewBox="0 0 24 22">
    <g fill="none" fill-rule="evenodd">
        <path fill-rule="nonzero" d="M1 0H24V22H1z"/>
        <path fill="#093A66" d="M22.816 9.774L12.496.312c-.452-.416-1.135-.416-1.588 0L.588 9.773c-.362.333-.482.846-.305 1.306.177.46.61.758 1.1.758h1.648v9.481c0 .376.303.681.677.681h15.989c.373 0 .676-.305.676-.68v-9.482h1.649c.49 0 .922-.297 1.1-.758.177-.46.057-.973-.306-1.306z"/>
        <path fill="#D0A765" fill-rule="nonzero" d="M9 12H14V20H9z"/>
    </g>
</svg>
