<svg xmlns="http://www.w3.org/2000/svg" width="22" height="22" viewBox="0 0 22 22">
    <g fill="none">
        <rect width="22" height="22" fill="#D8D8D8" rx="6"/>
        <g fill="#FFF">
            <path d="M10.483 5.242C10.483 2.347 8.136 0 5.242 0 2.347 0 0 2.347 0 5.242c0 2.894 2.347 5.24 5.242 5.24 2.894 0 5.24-2.346 5.24-5.24zM5.242 8.876c-2.004 0-3.635-1.63-3.635-3.634s1.63-3.635 3.635-3.635c2.003 0 3.634 1.63 3.634 3.635 0 2.004-1.63 3.634-3.634 3.634zM13.593 11.74l-3.206-3.206c-.478.743-1.11 1.375-1.853 1.853l3.206 3.206c.512.512 1.342.512 1.853 0 .512-.51.512-1.34 0-1.852z" transform="translate(4 4)"/>
        </g>
    </g>
</svg>
