<svg xmlns="http://www.w3.org/2000/svg" width="17" height="19" viewBox="0 0 17 19">
    <g fill="none" fill-rule="nonzero">
        <path d="M-1 0h19v19H-1z"/>
        <path fill="#093A66" d="M16.559 3.117a1.222 1.222 0 0 0-.913-.403h-1.3V1.696c0-.466-.159-.865-.477-1.198A1.531 1.531 0 0 0 12.722 0h-.65c-.446 0-.828.166-1.146.498a1.67 1.67 0 0 0-.477 1.198v1.018H6.552V1.696c0-.466-.16-.865-.478-1.198A1.531 1.531 0 0 0 4.927 0h-.65c-.446 0-.828.166-1.146.498a1.67 1.67 0 0 0-.477 1.198v1.018h-1.3c-.351 0-.656.135-.913.403a1.334 1.334 0 0 0-.385.955v13.571c0 .367.128.685.385.954.257.269.562.403.914.403h14.29c.352 0 .657-.134.914-.403s.385-.587.385-.954V4.072c0-.368-.128-.686-.385-.955zm-4.81-1.42c0-.1.03-.18.09-.244a.31.31 0 0 1 .234-.096h.65a.31.31 0 0 1 .233.096c.06.063.09.145.09.244V4.75c0 .1-.03.18-.09.244a.31.31 0 0 1-.234.095h-.65a.309.309 0 0 1-.233-.095.338.338 0 0 1-.09-.244V1.697zm-7.796 0c0-.1.03-.18.091-.244a.31.31 0 0 1 .234-.096h.65c.094 0 .172.032.233.096.06.063.091.145.091.244V4.75c0 .1-.03.18-.091.244a.31.31 0 0 1-.234.095h-.65a.309.309 0 0 1-.233-.095.339.339 0 0 1-.09-.244V1.697zM2.41 16.587V7.841h12.18v8.746H2.41z"/>
    </g>
</svg>
