<svg xmlns="http://www.w3.org/2000/svg" width="18" height="18" viewBox="0 0 18 18">
    <g fill="none" fill-rule="evenodd">
        <path fill-rule="nonzero" d="M0 0H18V18H0z"/>
        <path fill="#093A66" d="M15.675 16.541v-1.744c.376-.217.596-.622.57-1.049 0-.617-.383-1.117-.855-1.117s-.855.5-.855 1.117c-.026.427.194.832.57 1.05v1.743H14.01V8.055l-2.61-.838v1.504h.855v.558H11.4v1.118h.855v.558H11.4v1.117h.855v.559H11.4v1.117h.855v.559H11.4v1.117h.855v.559H11.4v.558h-.57V5.301l-3.42-.958v1.026h1.995v.559H7.41v1.117h1.995v.558H7.41v1.118h1.995v.558H7.41v1.118h1.995v.558H7.41v1.117h1.995v.559H7.41v1.117h1.995v.559H7.41v1.117h1.995v.559H7.41v.558h-.57V.9H1.71v1.117h2.565v.559H1.71v1.117h2.565v.559H1.71v1.117h2.565v.559H1.71v1.117h2.565v.558H1.71v1.118h2.565v.558H1.71v1.118h2.565v.558H1.71v1.117h2.565v.559H1.71v1.117h2.565v.559H1.71v1.117h2.565v.559H1.71v.558H.9v.559h16.2v-.559h-1.425z"/>
    </g>
</svg>
