<svg xmlns="http://www.w3.org/2000/svg" width="224" height="170" viewBox="0 0 224 170">
    <g fill="none" fill-rule="evenodd">
        <g transform="translate(14 -3)">
            <circle cx="93.5" cy="87.5" r="82.5" fill="#D7E3EE" fill-rule="nonzero" opacity=".3"/>
            <g fill-rule="nonzero" transform="rotate(5 -268.008 1148.929)">
                <rect width="77" height="89" x="1" y="1" fill="#F9F9F9" stroke="#093A66" stroke-width="2" rx="10"/>
                <rect width="59" height="25" x="10" y="9" fill="#D7E3EE" rx="6"/>
                <rect width="59" height="12" x="10" y="67" fill="#D7E3EE" rx="6"/>
                <rect width="43" height="6" x="10" y="54" fill="#D7E3EE" rx="3"/>
                <rect width="43" height="6" x="10" y="41" fill="#D7E3EE" rx="3"/>
                <g opacity=".102">
                    <path d="M31 13h17v17H31z"/>
                    <path fill="#093A66" d="M39.5 13c-4.687 0-8.5 3.813-8.5 8.5 0 4.687 3.813 8.5 8.5 8.5 4.687 0 8.5-3.813 8.5-8.5 0-4.687-3.813-8.5-8.5-8.5zm.54 2.761l2.185-1.175a7.473 7.473 0 0 1 3.07 2.263l-.52 2.404-1.668.817-3.067-2.235v-2.074zm-3.247-1.181l2.185 1.18v2.075l-3.065 2.235-1.676-.818-.52-2.418a7.462 7.462 0 0 1 3.076-2.254zM33.369 25.7a7.388 7.388 0 0 1-1.27-3.479l1.8-1.953 1.64.802 1.236 3.51-1.045 1.25-2.36-.13zm8.025 2.983a7.388 7.388 0 0 1-1.894.253 7.411 7.411 0 0 1-2.273-.358l-.668-2.08 1.066-1.28h3.755l1.046 1.239-1.032 2.226zm1.86-2.888l-1.027-1.217 1.253-3.508 1.633-.8 1.788 1.953a7.368 7.368 0 0 1-1.004 3.05l-2.642.522z"/>
                </g>
            </g>
            <g fill="#093A66">
                <path d="M115.547 12.08a1 1 0 0 0-1.393-.322l-8.854 4.699a1.011 1.011 0 1 0 1.072 1.715l8.853-4.7a1 1 0 0 0 .322-1.392zM101.822 3.905a1 1 0 0 0-1.127.88l-1.92 9.838a1.011 1.011 0 1 0 2.007.247l1.92-9.838a1 1 0 0 0-.88-1.127zM93.74 14.517a1 1 0 0 0-.132-.764L88.91 4.899a1.011 1.011 0 1 0-1.715 1.071l4.698 8.854a1 1 0 0 0 1.394.322 1 1 0 0 0 .454-.629z"/>
            </g>
            <g transform="translate(54 82)">
                <rect width="77" height="89" x="1" y="1" fill="#F9F9F9" fill-rule="nonzero" stroke="#093A66" stroke-width="2" rx="10"/>
                <rect width="59" height="25" x="10" y="9" fill="#D7E3EE" fill-rule="nonzero" rx="6"/>
                <rect width="59" height="12" x="10" y="67" fill="#D7E3EE" fill-rule="nonzero" rx="6"/>
                <rect width="43" height="6" x="10" y="54" fill="#D7E3EE" fill-rule="nonzero" rx="3"/>
                <rect width="43" height="6" x="10" y="41" fill="#D7E3EE" fill-rule="nonzero" rx="3"/>
                <g opacity=".1">
                    <path fill-rule="nonzero" d="M31 13h17v17H31z"/>
                    <g fill="#093A66">
                        <path d="M42.601 22.482c1.11 3.037 1.56 5.509 1.648 6.024a8.47 8.47 0 0 0 3.631-5.665c-.287-.091-2.62-.785-5.279-.359zM40.96 22.892c-4.78 1.659-6.496 4.967-6.649 5.276a8.451 8.451 0 0 0 5.203 1.783 8.4 8.4 0 0 0 3.311-.671c-.126-.74-.618-3.326-1.808-6.408l-.057.02zM41.902 20.713l.18.436c2.821-.354 5.624.213 5.902.272a8.383 8.383 0 0 0-1.91-5.264c-.176.24-1.598 2.056-4.734 3.331.197.403.386.813.562 1.225zM40.105 21.573l.335-.099c-.214-.48-.446-.961-.688-1.434-4.233 1.262-8.341 1.21-8.713 1.201l-.003.258a8.414 8.414 0 0 0 2.18 5.651c.192-.327 2.517-4.169 6.89-5.577zM39.053 18.74a53.989 53.989 0 0 0-3.143-4.888 8.483 8.483 0 0 0-4.693 5.917c.38.005 3.871.02 7.836-1.03zM45.134 15.179a8.466 8.466 0 0 0-5.62-2.13c-.683 0-1.35.081-1.986.235a45.477 45.477 0 0 1 3.162 4.947c3.015-1.125 4.29-2.836 4.444-3.052z"/>
                    </g>
                </g>
            </g>
            <g transform="rotate(-18 121.765 16.46)">
                <rect width="77" height="89" x="1" y="1" fill="#F9F9F9" fill-rule="nonzero" stroke="#093A66" stroke-width="2" rx="10"/>
                <rect width="59" height="25" x="10" y="9" fill="#D7E3EE" fill-rule="nonzero" rx="6"/>
                <rect width="59" height="12" x="10" y="67" fill="#D7E3EE" fill-rule="nonzero" rx="6"/>
                <rect width="43" height="6" x="10" y="54" fill="#D7E3EE" fill-rule="nonzero" rx="3"/>
                <rect width="43" height="6" x="10" y="41" fill="#D7E3EE" fill-rule="nonzero" rx="3"/>
                <g opacity=".1">
                    <path fill-rule="nonzero" d="M31 13h17v17H31z"/>
                    <g fill="#093A66">
                        <path fill-rule="nonzero" d="M44.662 19.328a2.892 2.892 0 0 0-.81-2.26 2.893 2.893 0 0 0-2.214-.764c.014-.894-.291-1.746-.896-2.351-.613-.614-1.35-.953-2.037-.953-.132 0-.263.013-.39.038-.494.1-1.172.433-1.59 1.458l-1.3 3.186-.002.007-2.028 4.973 2.428 2.428 2.73-3.555.878.878-3.555 2.73 2.435 2.435 4.969-2.032.007-.003 3.184-1.301c1.024-.419 1.358-1.096 1.457-1.59.159-.79-.183-1.697-.914-2.428-.605-.605-1.458-.91-2.352-.896zm-3.622-1.03a1.23 1.23 0 0 1 1.657-.029 1.23 1.23 0 0 1-.03 1.657l-1.903 1.463-1.186-1.187L41.04 18.3zm-6.287 5.45l1.741-4.272.871.87-2.612 3.401zm3.636-4.734L37.177 17.8l1.09-2.675c.063-.154.196-.417.377-.454.184-.037.551.09.92.459.483.484.542 1.385.148 2.16l-1.323 1.723zm-1.199 7.222l3.43-2.635.874.875-4.304 1.76zm9.104-3.914c-.036.182-.3.314-.454.377l-2.673 1.093-1.214-1.215 1.722-1.323c.775-.394 1.676-.335 2.16.15.369.367.497.734.46.918z"/>
                        <path d="M36.836 28.46l-4.321-4.321-.59.589a3.126 3.126 0 0 0-.036 4.399 3.127 3.127 0 0 0 2.139.84c.838 0 1.626-.325 2.219-.918l.589-.59z"/>
                    </g>
                </g>
            </g>
        </g>
        <g fill="#093A66">
            <path d="M8.44 126.26a1 1 0 0 0-1 1v3.64a1 1 0 1 0 2 0v-3.62a1 1 0 0 0-1-1.02zM8.44 137.36a1 1 0 0 0-1 1V142a1 1 0 0 0 2 0v-3.62a1 1 0 0 0-1-1.02zM16.82 134.65a1 1 0 0 0-1-1h-3.64a1 1 0 0 0 0 2h3.64a1 1 0 0 0 1-1zM5.72 134.65a1 1 0 0 0-1-1H1.08a1 1 0 1 0 0 2h3.64a1 1 0 0 0 1-1z"/>
        </g>
        <g fill="#093A66">
            <path d="M215.44 24.26a1 1 0 0 0-1 1v3.64a1 1 0 1 0 2 0v-3.62a1 1 0 0 0-1-1.02zM215.44 35.36a1 1 0 0 0-1 1V40a1 1 0 0 0 2 0v-3.62a1 1 0 0 0-1-1.02zM223.82 32.65a1 1 0 0 0-1-1h-3.64a1 1 0 0 0 0 2h3.64a1 1 0 0 0 1-1zM212.72 32.65a1 1 0 0 0-1-1h-3.64a1 1 0 1 0 0 2h3.64a1 1 0 0 0 1-1z"/>
        </g>
        <path fill="#083965" fill-rule="nonzero" d="M205.55 121.1a5.55 5.55 0 1 1 5.55-5.55 5.56 5.56 0 0 1-5.55 5.55zm0-9.18a3.62 3.62 0 1 0 3.62 3.63c0-2-1.619-3.624-3.62-3.63zM8.55 13.1a5.55 5.55 0 1 1 5.55-5.55 5.56 5.56 0 0 1-5.55 5.55zm0-9.18a3.62 3.62 0 1 0 3.62 3.63c0-2-1.619-3.624-3.62-3.63z"/>
        <g>
            <path fill="#FFCA6F" stroke="#093A66" stroke-width="2" d="M113.11 105.276c-13.824 2.687-27.21-6.341-29.897-20.166-2.687-13.824 6.341-27.21 20.166-29.897 13.824-2.687 27.21 6.341 29.897 20.166 2.687 13.824-6.341 27.21-20.166 29.897zm10.452-15.075c-8.483-5.702-20.07-3.42-25.749 5.082-.724 1.082.964 2.194 1.689 1.11 5.078-7.6 15.32-9.632 22.91-4.53 1.083.728 2.232-.935 1.15-1.662zM99.697 77.266c2.205-.429 3.654-2.522 3.235-4.675-.418-2.153-2.546-3.551-4.751-3.123-2.206.43-3.654 2.522-3.236 4.675.419 2.154 2.546 3.552 4.752 3.123zm15.1-2.935c2.206-.43 3.654-2.522 3.236-4.675-.419-2.154-2.546-3.552-4.751-3.123-2.206.429-3.655 2.522-3.236 4.675.419 2.153 2.546 3.551 4.751 3.123z"/>
        </g>
    </g>
</svg>
