<svg xmlns="http://www.w3.org/2000/svg" width="212" height="183" viewBox="0 0 212 183">
    <g fill="none" fill-rule="evenodd">
        <circle cx="107.5" cy="100.5" r="82.5" fill="#D7E3EE" fill-rule="nonzero" opacity=".3"/>
        <g fill="#093A66">
            <path d="M8.44 142.26a1 1 0 0 0-1 1v3.64a1 1 0 1 0 2 0v-3.62a1 1 0 0 0-1-1.02zM8.44 153.36a1 1 0 0 0-1 1V158a1 1 0 0 0 2 0v-3.62a1 1 0 0 0-1-1.02zM16.82 150.65a1 1 0 0 0-1-1h-3.64a1 1 0 0 0 0 2h3.64a1 1 0 0 0 1-1zM5.72 150.65a1 1 0 0 0-1-1H1.08a1 1 0 1 0 0 2h3.64a1 1 0 0 0 1-1z"/>
        </g>
        <g fill="#093A66">
            <path d="M185.44.26a1 1 0 0 0-1 1V4.9a1 1 0 1 0 2 0V1.28a1 1 0 0 0-1-1.02zM185.44 11.36a1 1 0 0 0-1 1V16a1 1 0 0 0 2 0v-3.62a1 1 0 0 0-1-1.02zM193.82 8.65a1 1 0 0 0-1-1h-3.64a1 1 0 0 0 0 2h3.64a1 1 0 0 0 1-1zM182.72 8.65a1 1 0 0 0-1-1h-3.64a1 1 0 1 0 0 2h3.64a1 1 0 0 0 1-1z"/>
        </g>
        <path fill="#083965" fill-rule="nonzero" d="M205.55 137.1a5.55 5.55 0 1 1 5.55-5.55 5.56 5.56 0 0 1-5.55 5.55zm0-9.18a3.62 3.62 0 1 0 3.62 3.63c0-2-1.619-3.624-3.62-3.63zM8.55 29.1a5.55 5.55 0 1 1 5.55-5.55 5.56 5.56 0 0 1-5.55 5.55zm0-9.18a3.62 3.62 0 1 0 3.62 3.63c0-2-1.619-3.624-3.62-3.63z"/>
        <g transform="translate(39 44)">
            <path fill="#F9F9F9" fill-rule="nonzero" stroke="#093A66" stroke-width="2" d="M5.044 42.87A9 9 0 0 0 1 50.384V112a9 9 0 0 0 9 9h116a9 9 0 0 0 9-9V50.39a9 9 0 0 0-4.053-7.518L72.867 4.658a9 9 0 0 0-9.904.006L5.044 42.87z"/>
            <path stroke="#093A66" stroke-width="2" d="M2.184 44.998L55.42 79.922 5 119.808M134 44.998L80.71 79.902l50.474 39.906"/>
            <path fill="#FFCA6F" fill-rule="nonzero" stroke="#093A66" stroke-width="2" d="M32.671 13.87a9 9 0 0 0-8.695 8.999L24 58.989l31.166 21.137 12.992-9.497 12.865 9.494 30.953-21.132V22.87a9 9 0 0 0-9-9H32.671z"/>
            <g opacity=".1">
                <path d="M60 95h15v16H60z"/>
                <g fill="#093A66">
                    <path fill-rule="nonzero" d="M71.677 100.81a2.779 2.779 0 0 0-.692-2.076 2.37 2.37 0 0 0-1.892-.7c.012-.822-.25-1.604-.766-2.16-.524-.563-1.154-.874-1.741-.874-.113 0-.225.012-.334.035-.422.092-1.001.398-1.36 1.338l-1.11 2.925-.002.006-1.733 4.566 2.075 2.228 2.334-3.262.75.805-3.038 2.507 2.08 2.235 4.247-1.865.007-.003 2.721-1.195c.875-.384 1.16-1.006 1.246-1.46.135-.724-.157-1.557-.782-2.228-.517-.555-1.246-.835-2.01-.823zm-3.095-.945a.998.998 0 0 1 1.416-.028c.359.44.347 1.095-.026 1.521l-1.627 1.343-1.013-1.09 1.25-1.746zm-5.375 5.001l1.489-3.921.744.8-2.233 3.121zm3.109-4.345l-1.037-1.113.933-2.456c.053-.142.167-.384.321-.417.158-.034.471.083.786.421.414.445.464 1.272.128 1.984l-1.131 1.58zm-1.025 6.63l2.93-2.419.749.803-3.679 1.616zm7.781-3.593c-.031.166-.256.288-.388.346l-2.284 1.003-1.039-1.115 1.472-1.215c.663-.361 1.433-.307 1.847.137.315.338.424.675.392.844z"/>
                    <path d="M64.988 109.192l-3.693-3.967-.504.541c-1.027 1.102-1.056 2.86-.067 4a2.575 2.575 0 0 0 1.864.81c.716 0 1.39-.299 1.896-.843l.504-.54z"/>
                </g>
            </g>
            <rect width="64" height="3" x="36" y="25" fill="#093A66" fill-rule="nonzero" rx="1.5"/>
            <rect width="64" height="3" x="36" y="38" fill="#093A66" fill-rule="nonzero" rx="1.5"/>
            <rect width="38" height="3" x="36" y="51" fill="#093A66" fill-rule="nonzero" rx="1.5"/>
            <g fill-rule="nonzero" opacity=".102">
                <path d="M110.113 73l16.495 4.113-4.113 16.495L106 89.495z"/>
                <path fill="#093A66" d="M118.36 75.056c-4.547-1.133-9.17 1.644-10.304 6.192-1.133 4.547 1.644 9.17 6.192 10.303 4.547 1.134 9.17-1.643 10.303-6.19 1.134-4.548-1.643-9.17-6.19-10.305zm-.144 2.81l2.405-.611a7.473 7.473 0 0 1 2.43 2.938l-1.086 2.206-1.815.39-2.436-2.91.502-2.013zm-2.865-1.932l1.835 1.673-.502 2.015-3.515 1.426-1.427-1.199.08-2.472a7.462 7.462 0 0 1 3.53-1.443zm-6.012 9.963a7.388 7.388 0 0 1-.39-3.682l2.218-1.461 1.397 1.175.35 3.704-1.316.962-2.259-.698zm7.065 4.835a7.388 7.388 0 0 1-1.9-.212 7.411 7.411 0 0 1-2.118-.897l-.145-2.18 1.344-.985 3.643.909.716 1.455-1.54 1.91zm2.504-2.352l-.703-1.429 2.065-3.1 1.778-.382 1.262 2.327a7.368 7.368 0 0 1-1.712 2.717l-2.69-.133z"/>
            </g>
            <g opacity=".1">
                <path d="M10 76.244L26.688 73l3.243 16.688-16.687 3.243z"/>
                <g fill="#093A66">
                    <path d="M23.197 83.338c1.67 2.77 2.582 5.11 2.767 5.6a8.47 8.47 0 0 0 2.484-6.255c-.3-.035-2.722-.27-5.25.655zM21.665 84.053c-4.376 2.54-5.43 6.116-5.52 6.448a8.451 8.451 0 0 0 5.446.757 8.4 8.4 0 0 0 3.123-1.29c-.265-.703-1.241-3.147-2.998-5.945l-.051.03zM22.173 81.734l.26.394c2.702-.885 5.561-.864 5.846-.858a8.383 8.383 0 0 0-2.88-4.803c-.127.269-1.176 2.322-4.011 4.173.27.358.534.724.785 1.094zM20.574 82.922l.31-.16a29.074 29.074 0 0 0-.95-1.277c-3.914 2.046-7.957 2.778-8.323 2.841l.046.254a8.414 8.414 0 0 0 3.218 5.131c.126-.358 1.676-4.573 5.699-6.789zM19 80.342a53.989 53.989 0 0 0-4.017-4.199 8.483 8.483 0 0 0-3.479 6.704c.374-.067 3.805-.72 7.496-2.505zM24.29 75.686a8.466 8.466 0 0 0-5.923-1.018c-.67.13-1.31.336-1.905.609.29.263 2.2 2.021 4.048 4.252 2.745-1.68 3.67-3.601 3.78-3.843z"/>
                </g>
            </g>
        </g>
    </g>
</svg>
