<svg xmlns="http://www.w3.org/2000/svg" width="74" height="57" viewBox="0 0 74 57">
    <g fill="none" fill-rule="nonzero">
        <path fill="#B89459" d="M51.29 26.735l.983-4.636c-.851 1.302-2.245 2.469-4.12 3.421-2.99 1.518-6.934 2.355-11.105 2.355-4.172 0-8.115-.837-11.104-2.355-1.876-.952-3.27-2.12-4.121-3.42l.983 4.635c.805 1.184 2.09 2.246 3.807 3.118 2.258 1.146 5.097 1.878 8.16 2.121a2.318 2.318 0 0 1 2.275-1.857c1.124 0 2.062.798 2.274 1.857 3.064-.243 5.903-.975 8.161-2.121 1.716-.872 3.002-1.934 3.807-3.118"/>
        <path fill="#B89459" d="M26.613 30.955c-1.5-.761-2.67-1.669-3.48-2.675l.464 2.186c.347 1.797 1.798 3.416 4.175 4.623 1.934.982 4.347 1.62 6.956 1.86v-3.877c-3.046-.246-5.868-.976-8.115-2.117M46.324 35.09c2.377-1.208 3.827-2.827 4.174-4.625l.464-2.185c-.81 1.006-1.98 1.914-3.479 2.675-2.247 1.141-5.07 1.87-8.115 2.118v3.876c2.608-.239 5.022-.878 6.956-1.86M44.94 21.918c-.02-.698-.273-1.35-.719-1.93l-.03.03-1.98 2.052-.893.926-.59.611L39.5 24.88a3.569 3.569 0 0 1-2.452.972 3.57 3.57 0 0 1-2.452-.972l-.016-.015a3.562 3.562 0 0 1-.225-.233l-1.58-1.637-.89-.924-1.98-2.052-.03-.032c-.446.58-.7 1.23-.72 1.928-.849-.616-1.33-1.304-1.33-1.965 0-.46.236-.935.669-1.393L26.6 16.594c-.98.994-1.502 2.138-1.502 3.356 0 .171.01.34.031.509-.878-.817-1.356-1.7-1.356-2.567 0-.91.527-1.836 1.488-2.686l-1.895-1.964c-1.513 1.363-2.321 2.955-2.321 4.65 0 2.523 1.787 4.82 5.032 6.468 1.147.583 2.438 1.062 3.827 1.432 1.981.527 4.164.832 6.43.885h.007l.277.004a19.72 19.72 0 0 0 .86 0l.276-.004h.008c2.266-.053 4.448-.358 6.429-.885 1.39-.37 2.68-.85 3.827-1.432 3.246-1.648 5.033-3.945 5.033-6.468 0-1.695-.809-3.287-2.321-4.65l-1.896 1.964c.962.85 1.49 1.777 1.49 2.686 0 .866-.48 1.75-1.358 2.567.02-.168.032-.338.032-.509 0-1.218-.522-2.362-1.503-3.356l-1.894 1.963c.432.455.669.93.669 1.393 0 .657-.474 1.346-1.33 1.968zM31.848 3.571h3.6V2.424h-3.6v1.147zm6.798 0h3.6V2.424h-3.6v1.147zM43.503.165v5.849h-.89v2.053l-1.167-.203v-1.85h-8.799v1.85l-1.166.204V6.014h-.89V.164h12.912zM27.613 5.854l-1.465-.844-1.465-.843v6.509l.463-.294V7.274l1.002-.577zM51.879 5.854l-1.465-.844-1.465-.843v6.215l.463.294V7.274l1.002-.577z"/>
        <path fill="#FFF" d="M27.315 13.846c2.577-1.308 6.034-2.03 9.733-2.03 3.699 0 7.155.722 9.732 2.03.246.125.478.255.7.387l1.932-2.002a14.2 14.2 0 0 0-1.394-.808c-2.953-1.5-6.849-2.326-10.97-2.326-4.122 0-8.017.826-10.97 2.326-.501.254-.965.524-1.395.808l1.932 2.002c.223-.132.454-.262.7-.387"/>
        <path fill="#FFF" d="M37.048 13.214c-3.039 0-5.917.612-8.105 1.723-.379.192-.73.398-1.056.614l1.934 2.005a8.41 8.41 0 0 1 .36-.196c1.812-.92 4.25-1.426 6.867-1.426 3 0 5.565.686 7.223 1.626l1.938-2.009a10.623 10.623 0 0 0-1.057-.614c-2.187-1.111-5.066-1.723-8.104-1.723"/>
        <path fill="#FFF" d="M31.093 18.874l1.937 2.008c.893-.454 2.27-.831 4.018-.831 1.748 0 3.125.377 4.017.831l1.938-2.008c-1.425-.957-3.528-1.543-5.955-1.543-2.428 0-4.53.586-5.955 1.543M37.048 21.255c-.863 0-1.562.697-1.562 1.557a1.559 1.559 0 0 0 2.815.925c.193-.26.308-.579.308-.925 0-.86-.699-1.557-1.561-1.557M9.642 49.88a4.033 4.033 0 0 0-1.279-.849 3.902 3.902 0 0 0-1.565-.315H4.123c-.182 0-.359-.031-.52-.104a1.16 1.16 0 0 1-.42-.28 1.216 1.216 0 0 1-.288-.43 1.371 1.371 0 0 1 0-1.04c.069-.16.16-.304.289-.426.115-.116.257-.214.42-.284.16-.063.337-.1.519-.1h6.136V43.39H4.123c-.55 0-1.07.102-1.55.314-.488.21-.913.497-1.272.856a3.981 3.981 0 0 0-.863 1.268c-.214.484-.32 1-.32 1.556 0 .545.106 1.066.32 1.552.205.487.496.908.863 1.273.359.36.784.648 1.272.86.48.205 1 .314 1.55.314h2.675c.191 0 .362.033.525.103a1.315 1.315 0 0 1 .81 1.223c0 .187-.032.362-.104.519a1.234 1.234 0 0 1-.282.426 1.34 1.34 0 0 1-.949.383H.862v2.665h5.936c.56 0 1.073-.106 1.565-.315a4.084 4.084 0 0 0 1.279-.858 4.04 4.04 0 0 0 .857-1.266c.208-.484.312-.998.312-1.554 0-.548-.104-1.066-.312-1.552a4.057 4.057 0 0 0-.857-1.277M20.432 51.383h-5.35v-2.667c0-.363.065-.711.208-1.033.14-.323.33-.608.57-.85a2.716 2.716 0 0 1 1.895-.782c.364 0 .713.072 1.041.21.32.14.61.33.85.572a2.635 2.635 0 0 1 .786 1.882v2.668zm1.111-6.433a5.453 5.453 0 0 0-1.71-1.142 5.182 5.182 0 0 0-2.078-.418 5.23 5.23 0 0 0-2.085.418 5.362 5.362 0 0 0-1.696 1.142 5.39 5.39 0 0 0-1.14 1.692 5.114 5.114 0 0 0-.421 2.074v7.986h2.668v-2.665h5.351v2.665h2.675v-7.986c0-.737-.139-1.427-.425-2.074a5.343 5.343 0 0 0-1.139-1.692zM33.235 49.753c-.14.326-.33.608-.578.85a2.604 2.604 0 0 1-.844.57c-.328.14-.67.21-1.04.21h-2.669v-5.332h2.668c.372 0 .713.072 1.041.21.326.14.607.33.844.572a2.631 2.631 0 0 1 .79 1.882c0 .369-.077.71-.212 1.038m2.153-3.719a5.454 5.454 0 0 0-1.921-1.917 5.413 5.413 0 0 0-1.272-.536 5.226 5.226 0 0 0-1.423-.191h-5.346v13.312h2.678v-2.665l2.992-.016 1.163 2.68h2.84l-1.48-3.479a5.281 5.281 0 0 0 1.833-1.933c.213-.39.379-.801.496-1.232.114-.434.17-.883.17-1.342 0-.485-.06-.956-.188-1.406a5.364 5.364 0 0 0-.542-1.275M45.737 51.383h-5.349v-2.667c0-.363.073-.711.208-1.033.143-.323.335-.608.577-.85a2.663 2.663 0 0 1 1.896-.782 2.694 2.694 0 0 1 1.89.782c.241.242.432.527.57.85.143.322.208.67.208 1.033v2.667zm1.113-6.433a5.41 5.41 0 0 0-1.7-1.142 5.233 5.233 0 0 0-2.081-.418 5.21 5.21 0 0 0-2.087.418 5.378 5.378 0 0 0-1.7 1.142 5.454 5.454 0 0 0-1.138 1.692 5.156 5.156 0 0 0-.418 2.074v7.986h2.662v-2.665h5.349v2.665h2.678v-7.986c0-.737-.138-1.427-.418-2.074a5.385 5.385 0 0 0-1.147-1.692zM53.92 47.126c.383-.381.828-.68 1.34-.906a4.11 4.11 0 0 1 1.65-.332 4.16 4.16 0 0 1 1.668.343c.528.236.995.555 1.399.96l1.398-2.315a6.874 6.874 0 0 0-4.465-1.638c-.64 0-1.25.082-1.83.246a6.971 6.971 0 0 0-1.652.693 6.742 6.742 0 0 0-1.392 1.073 6.805 6.805 0 0 0-1.779 3.033 6.773 6.773 0 0 0 0 3.65c.16.583.395 1.135.695 1.646.3.508.658.978 1.084 1.394.415.419.883.776 1.392 1.078a6.947 6.947 0 0 0 1.651.695c.58.165 1.191.245 1.831.245a6.84 6.84 0 0 0 4.464-1.637v-5.253h-2.58v.014H55.69v2.654h3.102v1.119a4.696 4.696 0 0 1-.904.339 4.098 4.098 0 0 1-.979.116c-.589 0-1.133-.11-1.65-.333a4.33 4.33 0 0 1-1.34-.911 4.14 4.14 0 0 1-.916-1.345 4.091 4.091 0 0 1-.34-1.653c0-.58.116-1.13.34-1.642.22-.507.524-.951.915-1.333M71.304 51.383h-5.355v-2.667c0-.363.07-.711.213-1.033.134-.323.331-.608.57-.85a2.74 2.74 0 0 1 .857-.571c.325-.14.67-.21 1.038-.21a2.681 2.681 0 0 1 2.464 1.632c.139.32.213.669.213 1.032v2.667zm2.254-4.74a5.365 5.365 0 0 0-2.849-2.834 5.214 5.214 0 0 0-2.082-.42c-.74 0-1.435.14-2.083.42a5.237 5.237 0 0 0-1.696 1.14 5.417 5.417 0 0 0-1.148 1.693 5.2 5.2 0 0 0-.413 2.074v7.986h2.662v-2.665h5.355v2.665h2.674v-7.986a5.16 5.16 0 0 0-.42-2.074z"/>
    </g>
</svg>
