<svg xmlns="http://www.w3.org/2000/svg" width="16" height="18" viewBox="0 0 16 18">
    <path fill="#FFF" d="M13 12.4c.427 0 .827.11 1.2.33.373.22.67.517.89.89.22.373.33.773.33 1.2 0 .427-.11.83-.33 1.21-.22.38-.517.683-.89.91-.373.227-.773.34-1.2.34-.427 0-.827-.113-1.2-.34-.373-.227-.67-.53-.89-.91-.22-.38-.33-.783-.33-1.21 0-.267.013-.447.04-.54l-5.9-3.44c-.48.44-1.053.66-1.72.66-.44 0-.853-.113-1.24-.34-.387-.227-.693-.533-.92-.92C.613 9.853.5 9.44.5 9c0-.44.113-.853.34-1.24.227-.387.533-.693.92-.92.387-.227.8-.34 1.24-.34.667 0 1.24.22 1.72.66l5.86-3.4-.051-.285c-.02-.125-.029-.223-.029-.295 0-.44.113-.853.34-1.24.227-.387.533-.693.92-.92.387-.227.8-.34 1.24-.34.44 0 .853.113 1.24.34.387.227.693.533.92.92.227.387.34.8.34 1.24 0 .44-.113.853-.34 1.24-.227.387-.533.693-.92.92-.387.227-.8.34-1.24.34-.613 0-1.187-.233-1.72-.7L5.42 8.42l.051.262c.02.119.029.218.029.298 0 .133-.027.333-.08.6l5.94 3.44c.48-.413 1.027-.62 1.64-.62z"/>
</svg>
