<svg xmlns="http://www.w3.org/2000/svg" width="17" height="19" viewBox="0 0 17 19">
    <g fill="none" fill-rule="evenodd">
        <path fill-rule="nonzero" d="M-1 0h19v19H-1z"/>
        <g fill="#093A66">
            <path d="M7.972 11.264V5.979a4.773 4.773 0 0 0-4.215 4.734 4.771 4.771 0 0 0 4.766 4.766 4.773 4.773 0 0 0 4.734-4.215H7.972z"/>
            <path d="M9.102 10.31h4.222a4.82 4.82 0 0 0-4.222-4.222v4.222z"/>
            <path fill-rule="nonzero" d="M14.471 5.071a8.473 8.473 0 0 0-4.05-2.178v-1.78h1.154V0h-6.15v1.113h1.154v1.78a8.472 8.472 0 0 0-4.05 2.178C.934 6.612.056 8.661.056 10.841c0 2.18.878 4.228 2.473 5.77C4.124 18.15 6.244 19 8.5 19c2.256 0 4.376-.849 5.971-2.39 1.595-1.54 2.473-3.59 2.473-5.77 0-2.179-.878-4.228-2.473-5.769zM8.5 16.773c-3.386 0-6.14-2.661-6.14-5.932 0-3.271 2.754-5.933 6.14-5.933 3.386 0 6.14 2.662 6.14 5.933s-2.754 5.932-6.14 5.932z"/>
        </g>
    </g>
</svg>
