<svg xmlns="http://www.w3.org/2000/svg" width="22" height="22" viewBox="0 0 22 22">
    <g fill="none" fill-rule="nonzero">
        <path d="M0 0h22v22H0z"/>
        <path fill="#DDD" d="M6 0h10a6 6 0 0 1 6 6v10a6 6 0 0 1-6 6H6a6 6 0 0 1-6-6V6a6 6 0 0 1 6-6zm-.5 8a1.5 1.5 0 1 0 0-3 1.5 1.5 0 0 0 0 3zm0 5a1.5 1.5 0 1 0 0-3 1.5 1.5 0 0 0 0 3zm0 5a1.5 1.5 0 1 0 0-3 1.5 1.5 0 0 0 0 3zM9.746 5.488a1 1 0 1 0 0 2h7a1 1 0 1 0 0-2h-7zm0 5a1 1 0 1 0 0 2h7a1 1 0 1 0 0-2h-7zm0 5a1 1 0 1 0 0 2h7a1 1 0 1 0 0-2h-7z"/>
    </g>
</svg>
