<svg height="512pt" viewBox="0 0 512 512.27085" width="512pt" xmlns="http://www.w3.org/2000/svg"><path d="m493.515625 244.222656-9.277344 4.761719c41.445313-70.5625 36.941407-154.625-14.625-206.191406-32.390625-31.484375-77.15625-46.84375-122.054687-41.875-48.953125 4.832031-94.628906 26.792969-128.972656 62.011719-35.214844 34.335937-57.175782 80.003906-62.011719 128.949218-4.488281 41.910156 8.628906 83.808594 36.21875 115.675782l-34.050781 34.136718c-10.09375-9.035156-25.476563-8.644531-35.097657.894532l-51.328125 51.300781-64.679687 64.683593c-4.804688 4.800782-7.5 11.3125-7.5 18.105469 0 6.789063 2.695312 13.300781 7.5 18.101563l10 9.992187c9.996093 9.996094 26.199219 9.996094 36.199219 0l116.050781-116.011719c9.515625-9.574218 9.9375-24.898437.964843-34.984374l34.015626-34.082032c27.78125 24.25 63.550781 37.371094 100.425781 36.835938 9.203125-.085938 18.386719-.867188 27.46875-2.34375l25.773437 99.4375v7.449218c0 28.277344 22.921875 51.199219 51.199219 51.199219s51.199219-22.921875 51.199219-51.199219v-7.421874l50.9375-194.960938c1.253906-4.902344-.496094-10.082031-4.464844-13.21875-3.96875-3.140625-9.414062-3.644531-13.890625-1.289062zm-357.804687 110.402344c1.601562-1.601562 3.773437-2.5 6.039062-2.5s4.4375.898438 6.035156 2.5l5.035156 5.042969 4.949219 4.949219c3.332031 3.332031 3.332031 8.734374 0 12.066406l-4.460937 4.464844-30.292969-13.78125zm-12.515626 56.652344-30.347656-13.789063 17.238282-17.238281 30.34375 13.792969zm-30.125 30.125-30.34375-13.789063 17.238282-17.238281 30.34375 13.789062zm-30.121093 30.121094-30.34375-13.789063 17.234375-17.238281 30.34375 13.789062zm-33.238281 21.1875-10.011719-10c-1.601563-1.601563-2.5-3.773438-2.5-6.035157 0-2.265625.898437-4.4375 2.5-6.039062l30.347656 13.789062-8.296875 8.296875c-3.371094 3.207032-8.671875 3.203125-12.039062-.011718zm180.828124-190.847657c-27.910156-28.847656-41.457031-68.667969-36.929687-108.550781 4.492187-44.929688 24.703125-86.832031 57.070313-118.316406 31.488281-32.363282 73.386718-52.570313 118.3125-57.070313 39.882812-4.511719 79.691406 9.042969 108.527343 36.957031 51.3125 51.320313 49.691407 139.445313-2.855469 207.164063l-15.105468-8.257813c.128906-.128906.171875-.300781.28125-.429687 9.644531-12.039063 17.71875-25.257813 24.03125-39.335937.148437-.277344.28125-.5625.398437-.855469 6.601563-15 10.894531-30.910157 12.734375-47.195313.492188-1.320312.648438-2.738281.449219-4.132812 3.988281-34.828125-7.691406-69.632813-31.878906-95.007813-6.75-6.699219-14.367188-12.460937-22.648438-17.136719-.304687-.183593-.621093-.347656-.945312-.496093-21.871094-11.796875-46.765625-16.785157-71.492188-14.324219-.710937-.054688-1.425781-.015625-2.125.109375-16.765625 1.785156-33.152343 6.171875-48.5625 13.003906-.597656.1875-1.167969.441407-1.707031.75-13.863281 6.246094-26.890625 14.195313-38.785156 23.664063-.195313.164062-.433594.230468-.613282.410156 0 0-.050781.101562-.09375.144531-5.542968 4.378907-10.839843 9.058594-15.863281 14.019531-5.292969 5.230469-10.238281 10.796876-14.808593 16.667969-9.625 12.019531-17.65625 25.238281-23.890626 39.320313l-.101562.230468c-7.003906 15.664063-11.449219 32.347657-13.167969 49.417969-.125.578125-.183593 1.171875-.179687 1.765625-2.503906 24.90625 2.492187 49.992188 14.34375 72.039063.058594.160156.171875.296875.25.460937 4.707031 8.433594 10.550781 16.1875 17.363281 23.039063 4.074219 3.96875 8.457031 7.609375 13.105469 10.886719l.054687.070312c.183594.136719.378907.265625.578125.382812 20.296875 14.140626 44.511719 21.578126 69.25 21.265626 4.179688 0 8.421875-.203126 12.6875-.589844.078125 0 .152344.042968.230469.042968.332031-.046874.65625-.109374.980469-.1875 1.570312-.152343 3.160156-.441406 4.746094-.648437l4.308593 16.597656c-42.789062 7.539063-86.605469-5.785156-117.949219-35.875zm235.273438 142.140625h-72.148438l-6.597656-25.601562h85.429688zm-83.214844-42.667968-15.15625-58.339844v-.050782l-.042968-.105468-20.523438-79.078125 29.714844 15.414062c3.832031 2.097657 8.472656 2.097657 12.304687 0l32.304688-17.664062v139.824219zm-128-123.535157c-4.039062-4.058593-7.671875-8.503906-10.847656-13.269531l16.84375-16.84375 18.09375 18.097656-17.632812 17.640625c-2.191407-1.820312-4.417969-3.601562-6.449219-5.625zm29.53125-187.402343 24.695313 24.695312-18.054688 18.058594-24.746093-24.703125c2.636718-3.054688 5.441406-6.152344 8.675781-9.386719 3.089843-3.046875 6.238281-5.898438 9.4375-8.664062zm36.191406-24.046876 18.628907 18.628907-18.058594 18.046875-23.210937-23.21875c7.179687-5.078125 14.753906-9.578125 22.648437-13.457032zm46.320313-14.027343 2.480469 2.484375-18.097656 18.097656-13.585938-13.59375c9.460938-3.351562 19.25-5.691406 29.203125-6.988281zm86.832031 26.589843c2.039063 2.039063 3.867188 4.265626 5.675782 6.425782l-17.679688 17.679687-18.101562-18.097656 16.769531-16.777344c4.777343 3.15625 9.246093 6.761719 13.335937 10.769531zm-70.765625 184.183594-11.171875-5.792968 9.644532-9.636719 10.511718 10.515625zm-134.125-87.75-18.09375 18.09375-2.421875-2.425781c1.246094-9.984375 3.554688-19.808594 6.886719-29.300781zm12.0625 12.078125 18.050781 18.046875-18.089843 18.082032-18.050781-18.046876zm138.589844-102.503906-18.097656 18.097656-18.046875-18.046875 18.097656-18.097656zm80.742187 80.75c-1.222656 10.007813-3.511718 19.859375-6.824218 29.378906l-19.660156-19.675781 18.097656-18.089844zm-38.550781-2.363281-18.058593-18.054688 18.101562-18.101562 18.054688 18.066406zm-108.46875 12.023437 18.058594-18.046875 18.132813 18.089844-18.089844 18.054688zm6.035157 30.164063-18.09375 18.09375-18.089844-18.109375 18.082031-18.082031zm24.089843-60.285156 18.054688-18.058594 18.097656 18.101562-18.054687 18.054688zm18.097657 42.230468 18.054687 18.054688-18.054687 18.058594-18.058594-18.058594zm12.066406-12.066406 18.054687-18.089844 18.058594 18.054688-18.058594 18.089844zm18.054687-42.1875-18.097656-18.101562 18.097656-18.097657 18.101563 18.097657zm-42.230469-18.101562-18.054687 18.058593-18.050781-18.050781 18.058594-18.046875zm-30.121093 30.125-18.058594 18.046874-18.046875-18.039062 18.054688-18.058594zm-30.125 30.121093-18.082031 18.074219-18.019532-18.046875 18.054688-18.074219zm-18.082031 42.214844 18.089843 18.105469-18.0625 18.058594-18.101562-18.089844zm30.148437 30.191406 6.828125 6.785157c-.140625 1.425781-.046875 2.867187.28125 4.265624l11.273438 43.417969-36.394532-36.394531zm19.269531-4.863281-7.203125-7.203125 18.101563-18.089844 18.089844 18.039063-13.464844 13.457031-9.175782-4.753906c-1.957031-1.039063-4.15625-1.542969-6.375-1.46875zm67.132813 6.824219-14.046875-14.078125 18.054687-18.058594 22.351563 22.351562c-3.34375-1.140624-7.007813-.828124-10.113282.851563zm45.226562-15-29.152343-29.203125 18.058593-18.054688 24.550781 24.550782c-3.871093 7.902343-8.363281 15.484374-13.441406 22.671874zm.996094-119.578125 15.292969-15.300782c6.992187 13.128907 11.046875 27.621094 11.878906 42.472657zm-42.214844-42.265625-21.261719-21.265625c11.886719.679687 23.574219 3.375 34.558594 7.96875zm-155.824219 49.125 23.21875 23.238281-18.050781 18.039062-18.574219-18.59375c3.839844-7.914062 8.324219-15.5 13.40625-22.683593zm-6.949218 113.640625-13.199219 13.199218c-4.550781-10.933593-7.242187-22.550781-7.960937-34.371093zm42.234375 42.230468 27.1875 27.203126c-14.871094-.820313-29.382813-4.871094-42.53125-11.867188zm138.972656 217.351563c-18.851563 0-34.132813-15.28125-34.132813-34.132813h68.265626c0 18.851563-15.28125 34.132813-34.132813 34.132813zm47.222656-93.867187h-38.691406v-139.773438l32.242187 17.628906c2.171876 1.15625 4.632813 1.667969 7.089844 1.46875h.09375c.101563 0 .179688-.0625.28125-.0625.976563-.097656 1.9375-.316406 2.859375-.648437.238281-.09375.476563-.152344.714844-.269531.351563-.117188.695313-.25 1.035156-.402344l30.335938-15.582032zm0 0"/></svg>