<svg height="512pt" viewBox="0 0 512 512" width="512pt" xmlns="http://www.w3.org/2000/svg"><path d="m60 73c0 5.523438 4.476562 10 10 10h126c5.523438 0 10-4.476562 10-10s-4.476562-10-10-10h-126c-5.523438 0-10 4.476562-10 10zm0 0"/><path d="m206 136c0-5.523438-4.476562-10-10-10h-126c-5.523438 0-10 4.476562-10 10s4.476562 10 10 10h126c5.523438 0 10-4.476562 10-10zm0 0"/><path d="m442 63h-126c-5.523438 0-10 4.476562-10 10s4.476562 10 10 10h126c5.523438 0 10-4.476562 10-10s-4.476562-10-10-10zm0 0"/><path d="m442 126h-126c-5.523438 0-10 4.476562-10 10s4.476562 10 10 10h126c5.523438 0 10-4.476562 10-10s-4.476562-10-10-10zm0 0"/><path d="m442 309h-126c-5.523438 0-10 4.476562-10 10s4.476562 10 10 10h126c5.523438 0 10-4.476562 10-10s-4.476562-10-10-10zm0 0"/><path d="m442 372h-126c-5.523438 0-10 4.476562-10 10s4.476562 10 10 10h126c5.523438 0 10-4.476562 10-10s-4.476562-10-10-10zm0 0"/><path d="m70 329h126c5.523438 0 10-4.476562 10-10s-4.476562-10-10-10h-126c-5.523438 0-10 4.476562-10 10s4.476562 10 10 10zm0 0"/><path d="m196 372h-126c-5.523438 0-10 4.476562-10 10s4.476562 10 10 10h126c5.523438 0 10-4.476562 10-10s-4.476562-10-10-10zm0 0"/><path d="m60.5 196.710938c0 16.542968 13.457031 30 30 30s30-13.457032 30-30c0-16.542969-13.457031-30-30-30s-30 13.457031-30 30zm40 0c0 5.511718-4.484375 10-10 10s-10-4.488282-10-10c0-5.515626 4.484375-10 10-10s10 4.484374 10 10zm0 0"/><path d="m336.5 166.710938c-16.542969 0-30 13.457031-30 30 0 16.542968 13.457031 30 30 30s30-13.457032 30-30c0-16.542969-13.457031-30-30-30zm0 40c-5.515625 0-10-4.488282-10-10 0-5.515626 4.484375-10 10-10s10 4.484374 10 10c0 5.511718-4.484375 10-10 10zm0 0"/><path d="m336.5 412.710938c-16.542969 0-30 13.457031-30 30 0 16.542968 13.457031 30 30 30s30-13.457032 30-30c0-16.542969-13.457031-30-30-30zm0 40c-5.515625 0-10-4.488282-10-10 0-5.515626 4.484375-10 10-10s10 4.484374 10 10c0 5.511718-4.484375 10-10 10zm0 0"/><path d="m90.5 412.710938c-16.542969 0-30 13.457031-30 30 0 16.542968 13.457031 30 30 30s30-13.457032 30-30c0-16.542969-13.457031-30-30-30zm0 40c-5.515625 0-10-4.488282-10-10 0-5.515626 4.484375-10 10-10s10 4.484374 10 10c0 5.511718-4.484375 10-10 10zm0 0"/><path d="m140 10c0 5.523438-4.476562 10-10 10s-10-4.476562-10-10 4.476562-10 10-10 10 4.476562 10 10zm0 0"/><path d="m482 0h-307c-5.523438 0-10 4.476562-10 10s4.476562 10 10 10h71v226h-226v-216c0-5.515625 4.484375-10 10-10h55c5.523438 0 10-4.476562 10-10s-4.476562-10-10-10h-55c-16.542969 0-30 13.457031-30 30v452c0 16.542969 13.457031 30 30 30h452c16.542969 0 30-13.457031 30-30v-452c0-16.542969-13.457031-30-30-30zm-216 20h216c5.515625 0 10 4.484375 10 10v216h-226zm-246 462v-216h226v226h-216c-5.515625 0-10-4.484375-10-10zm462 10h-216v-226h226v216c0 5.515625-4.484375 10-10 10zm0 0"/></svg>