<?xml version="1.0" encoding="iso-8859-1"?>
<!-- Generator: Adobe Illustrator 16.0.0, SVG Export Plug-In . SVG Version: 6.00 Build 0)  -->
<!DOCTYPE svg PUBLIC "-//W3C//DTD SVG 1.1//EN" "http://www.w3.org/Graphics/SVG/1.1/DTD/svg11.dtd">
<svg version="1.1" id="Capa_1" xmlns="http://www.w3.org/2000/svg" xmlns:xlink="http://www.w3.org/1999/xlink" x="0px" y="0px"
	 width="208.503px" height="208.502px" viewBox="0 0 208.503 208.502" style="enable-background:new 0 0 208.503 208.502;"
	 xml:space="preserve">
<g>
	<g>
		<path d="M124.731,51.688c14.25,0,25.844-11.596,25.844-25.844S138.981,0,124.731,0c-14.246,0-25.844,11.596-25.844,25.844
			S110.479,51.688,124.731,51.688z M124.731,7.009c10.386,0,18.836,8.449,18.836,18.835c0,10.388-8.45,18.835-18.836,18.835
			s-18.836-8.448-18.836-18.835C105.896,15.458,114.346,7.009,124.731,7.009z"/>
		<path d="M96.643,90.744l1.04-37.741c0-10.145-8.252-18.397-18.397-18.397c-2.832,0-5.59,0.676-8.218,2.012
			c-0.221,0.067-0.431,0.15-0.64,0.262L31.017,57.93c-0.47,0.197-0.905,0.435-1.339,0.683l-1.388,0.753
			c-0.178,0.096-0.342,0.204-0.497,0.324c-5.068,3.434-8.084,9.101-8.084,15.211v115.203c0,10.147,8.252,18.398,18.397,18.398
			c8.574,0,16.05-6.109,17.899-14.404c0.323-0.541,0.498-1.164,0.498-1.804V84.574l19.273-9.088v18.688
			c0,1.114,0.529,2.167,1.431,2.825c0.215,0.157,0.448,0.291,0.689,0.395c5.27,7.977,23.724,31.946,24.999,32.935
			c1.832,1.424,4.009,2.17,6.281,2.17c5.674,0,10.294-4.617,10.294-10.294c0-2.923-1.253-5.694-3.463-7.659L96.643,90.744z
			 M109.178,125.498c-0.78,0-1.396-0.294-1.813-0.582c-2.75-3.101-22.612-29.311-24.26-32.272c-0.087-0.214-0.195-0.412-0.318-0.596
			V69.964c0-1.199-0.613-2.317-1.629-2.962c-1.01-0.645-2.286-0.719-3.373-0.21L51.502,79.18c-1.225,0.582-2.007,1.815-2.007,3.171
			v108.708c-0.08,0.227-0.144,0.466-0.183,0.712c-0.83,5.637-5.547,9.726-11.206,9.726c-6.28,0-11.389-5.109-11.389-11.389V74.904
			c0-3.819,1.91-7.363,5.109-9.483l1.345-0.732c0.18-0.101,0.351-0.214,0.842-0.435l39.125-20.877
			c0.231-0.075,0.458-0.166,0.676-0.287c1.766-0.979,3.605-1.477,5.467-1.477c6.28,0,11.389,5.109,11.389,11.294l-1.077,38.943
			c-0.021,0.838,0.257,1.658,0.789,2.306l20.382,25.057c0.144,0.178,0.308,0.339,0.482,0.486c0.455,0.376,1.215,1.201,1.215,2.508
			C112.467,124.026,110.991,125.498,109.178,125.498z"/>
		<path d="M185.29,70.086h-1.099V51.788c0-9.904-8.056-17.959-17.959-17.959c-9.904,0-17.96,8.056-17.96,17.959
			c0,1.934,1.567,3.504,3.504,3.504c1.938,0,3.505-1.571,3.505-3.504c0-6.039,4.914-10.951,10.951-10.951
			c6.04,0,10.95,4.913,10.95,10.951v18.298h-58.912c-1.94,0-3.505,1.571-3.505,3.504v31.977c0,1.937,1.564,3.504,3.505,3.504h67.02
			c1.94,0,3.504-1.567,3.504-3.504V73.59C188.794,71.657,187.23,70.086,185.29,70.086z M181.786,102.063h-60.012V77.094h60.012
			V102.063z"/>
	</g>
</g>
<g>
</g>
<g>
</g>
<g>
</g>
<g>
</g>
<g>
</g>
<g>
</g>
<g>
</g>
<g>
</g>
<g>
</g>
<g>
</g>
<g>
</g>
<g>
</g>
<g>
</g>
<g>
</g>
<g>
</g>
</svg>
