<svg id="Capa_1" enable-background="new 0 0 512.001 512.001" height="512" viewBox="0 0 512.001 512.001" width="512" xmlns="http://www.w3.org/2000/svg"><path d="m180 70.542v-70.541h-120v70.541l-42.949 65.855c-11.155 17.104-17.051 36.938-17.051 57.358v318.246h240v-318.246c0-20.42-5.896-40.254-17.051-57.358zm-30-40.541v30h-60v-30zm-107.821 122.784 40.946-62.784h73.749l40.946 62.784c7.969 12.217 12.18 26.385 12.18 40.97v18.246h-180v-18.246c0-14.585 4.211-28.753 12.179-40.97zm-12.179 209.216v-60h180v60zm180 30v30h-180v-30zm-180-120v-30h180v30zm0 210v-30h180v30z"/><path d="m271 152.001v168.541l11.833 23.666c2.072 4.144 3.167 8.783 3.167 13.416v154.377h210.986v-154.377c0-4.633 1.095-9.272 3.167-13.417l11.832-23.665.016-168.542h-241.001zm210.999 30-.003 30h-180.996v-30zm-165.999 300v-38.072c8.833 5.123 19.075 8.072 30 8.072h90.986c10.925 0 21.167-2.949 30-8.072v38.072zm120.986-60h-90.986c-16.542 0-30-13.458-30-30v-34.377c0-9.267-2.19-18.545-6.334-26.833l-8.666-17.331v-71.459h180.993l-.006 71.458-8.666 17.332c-4.145 8.288-6.335 17.566-6.335 26.833v34.377c0 16.542-13.458 30-30 30z"/></svg>