<svg xmlns="http://www.w3.org/2000/svg" width="22" height="23" viewBox="0 0 22 23">
    <g fill="none" fill-rule="evenodd">
        <path fill-rule="nonzero" d="M-1-1h24v24H-1z"/>
        <g fill="#333">
            <path d="M10.787 9.917a2.094 2.094 0 0 0-2.649 2.016c0 1.153.938 2.092 2.092 2.092a2.094 2.094 0 0 0 2.016-2.65l5.828-5.827.943.126 2.95-2.95-2.232-.296-.296-2.232-2.95 2.95.125.943-5.827 5.828z"/>
            <path d="M10.454 7.914L12.18 6.19a6.055 6.055 0 0 0-6.237 1.455 6.067 6.067 0 0 0 0 8.575 6.067 6.067 0 0 0 8.576 0 6.063 6.063 0 0 0 1.454-6.24l-1.724 1.723a4.027 4.027 0 1 1-6.865-2.618 4.006 4.006 0 0 1 3.071-1.17z"/>
            <path d="M17.459 8.498a7.998 7.998 0 0 1-1.572 9.092 8 8 0 0 1-11.314 0 8 8 0 0 1 0-11.315 8.005 8.005 0 0 1 9.092-1.571l1.647-1.648C11.406.816 6.332 1.363 2.997 4.7-1 8.695-1 15.17 2.997 19.161c3.996 3.996 10.47 3.996 14.462 0 3.335-3.336 3.883-8.41 1.643-12.315l-1.643 1.652z"/>
        </g>
    </g>
</svg>
