<svg xmlns="http://www.w3.org/2000/svg" width="22" height="23" viewBox="0 0 22 23">
    <g fill="none" fill-rule="evenodd">
        <path d="M-1 0h24v24H-1z"/>
        <path d="M0 .756h22v22H0z"/>
        <g fill="#333">
            <path fill-rule="nonzero" d="M17.68 8.945a3.742 3.742 0 0 0-1.047-2.926 3.744 3.744 0 0 0-2.866-.987c.019-1.158-.377-2.26-1.16-3.044C11.814 1.195 10.86.756 9.971.756c-.17 0-.34.016-.504.05-.64.128-1.517.56-2.059 1.886L5.727 6.815l-.003.008-2.625 6.436 3.142 3.142 3.534-4.6 1.136 1.136-4.6 3.534 3.15 3.15 6.43-2.629.01-.004 4.12-1.684c1.325-.542 1.757-1.419 1.886-2.059.205-1.02-.237-2.194-1.183-3.14-.783-.783-1.887-1.178-3.044-1.16zm-4.687-1.332a1.592 1.592 0 0 1 2.145-.038c.543.62.525 1.543-.039 2.144l-2.463 1.892-1.535-1.535 1.892-2.463zm-8.137 7.05L7.11 9.137l1.127 1.127-3.38 4.4zm4.707-6.125L7.993 6.97l1.412-3.462c.081-.2.253-.54.487-.587.239-.048.713.117 1.19.593.626.627.703 1.793.193 2.797L9.563 8.538zM8.01 17.884l4.438-3.41 1.132 1.133-5.57 2.277zm11.782-5.064c-.048.234-.389.406-.588.487l-3.459 1.415-1.572-1.572 2.228-1.713c1.004-.51 2.17-.433 2.797.193.476.477.642.95.594 1.19z"/>
            <path d="M7.552 20.762L1.96 15.17l-.762.763a4.045 4.045 0 0 0-.047 5.692 4.047 4.047 0 0 0 2.768 1.09 4.034 4.034 0 0 0 2.87-1.19l.763-.763z"/>
        </g>
    </g>
</svg>
