<svg xmlns="http://www.w3.org/2000/svg" width="22" height="23" viewBox="0 0 22 23">
    <g fill="none" fill-rule="evenodd">
        <path d="M-1-1h24v24H-1z"/>
        <path d="M0 .244h22v21.933H0z"/>
        <g fill="#333">
            <path d="M15.013 12.515c1.437 3.93 2.019 7.13 2.132 7.797a10.96 10.96 0 0 0 4.7-7.333c-.371-.117-3.391-1.015-6.832-.464zM12.89 13.046c-6.186 2.147-8.408 6.427-8.605 6.827a10.937 10.937 0 0 0 6.733 2.307c1.52.003 2.97-.308 4.285-.868-.163-.958-.8-4.304-2.34-8.292l-.073.026zM14.108 10.225l.234.565c3.65-.458 7.277.276 7.638.353a10.849 10.849 0 0 0-2.473-6.813c-.228.31-2.068 2.66-6.126 4.31.255.523.5 1.053.727 1.585zM11.783 11.34l.433-.129a37.625 37.625 0 0 0-.89-1.856C5.848 10.99.531 10.92.051 10.91l-.004.333a10.889 10.889 0 0 0 2.82 7.313c.249-.423 3.258-5.395 8.916-7.217zM10.421 7.672a69.868 69.868 0 0 0-4.066-6.325C3.285 2.791.99 5.611.28 9.004c.492.007 5.01.026 10.141-1.332zM18.29 3.064A10.956 10.956 0 0 0 11.019.308c-.884 0-1.746.105-2.57.304a58.853 58.853 0 0 1 4.092 6.402c3.902-1.456 5.551-3.67 5.75-3.95z"/>
        </g>
    </g>
</svg>
