<svg xmlns="http://www.w3.org/2000/svg" width="22" height="22" viewBox="0 0 22 22">
    <g fill="none" fill-rule="nonzero">
        <path d="M-1-1h24v24H-1z"/>
        <path d="M0 0h22v22H0z"/>
        <path fill="#333" d="M11 0C4.935 0 0 4.935 0 11s4.935 11 11 11 11-4.935 11-11S17.065 0 11 0zm.698 3.574l2.829-1.521a9.67 9.67 0 0 1 3.972 2.929l-.673 3.11-2.158 1.057-3.97-2.891V3.574zm-4.202-1.53l2.829 1.527v2.687L6.358 9.149 4.19 8.091l-.674-3.13a9.657 9.657 0 0 1 3.98-2.916zm-4.43 14.393a9.561 9.561 0 0 1-1.643-4.502l2.328-2.529 2.123 1.038 1.6 4.542-1.353 1.62-3.055-.17zm10.386 3.86a9.561 9.561 0 0 1-2.452.328 9.59 9.59 0 0 1-2.941-.463l-.865-2.693 1.38-1.657h4.858l1.355 1.604-1.335 2.88zm2.407-3.738l-1.33-1.574 1.622-4.54 2.113-1.036 2.314 2.527a9.534 9.534 0 0 1-1.3 3.948l-3.419.675z"/>
    </g>
</svg>
