<svg xmlns="http://www.w3.org/2000/svg" width="22" height="19" viewBox="0 0 22 19">
    <g fill="none" fill-rule="evenodd">
        <path d="M-1-3h24v24H-1z"/>
        <g fill="#333">
            <path d="M12.616 8.334a1.077 1.077 0 0 0 0 2.152 1.077 1.077 0 0 0 0-2.152zM13.328 5.072v1.94a2.51 2.51 0 0 1 1.347.98l1.846-.6a4.409 4.409 0 0 0-3.193-2.32zM16.962 8.747l-1.846.6.001.063c0 .571-.193 1.098-.516 1.52l1.14 1.569a4.382 4.382 0 0 0 1.221-3.752z"/>
            <path fill-rule="nonzero" d="M12.616.026H3.944a.713.713 0 0 0 0 1.425H7.65a9.454 9.454 0 0 0-2.092 1.782H.713a.713.713 0 0 0 0 1.425h3.813A9.326 9.326 0 0 0 3.231 9.41c0 2.016.64 3.886 1.726 5.417H2.935a.713.713 0 0 0 0 1.426H6.2c.444.417.93.791 1.448 1.116H.786a.713.713 0 0 0 0 1.425h11.83c5.174 0 9.384-4.21 9.384-9.384S17.79.026 12.616.026zm3.462 14.062l-.04.032a5.79 5.79 0 0 1-3.422 1.112 5.79 5.79 0 0 1-3.422-1.112 5.817 5.817 0 0 1-2.4-4.71 5.829 5.829 0 0 1 5.822-5.822 5.829 5.829 0 0 1 5.822 5.822 5.817 5.817 0 0 1-2.36 4.678z"/>
            <path d="M8.71 7.392l1.846.6c.321-.464.794-.815 1.347-.98v-1.94a4.409 4.409 0 0 0-3.192 2.32zM13.448 11.769a2.49 2.49 0 0 1-1.665 0l-1.14 1.57a4.37 4.37 0 0 0 1.973.468 4.37 4.37 0 0 0 1.973-.469l-1.14-1.57zM10.114 9.41l.001-.063-1.846-.6A4.382 4.382 0 0 0 9.49 12.5l1.14-1.569a2.489 2.489 0 0 1-.516-1.52z"/>
        </g>
    </g>
</svg>
