<svg height="512" viewBox="0 0 64 64" width="512" xmlns="http://www.w3.org/2000/svg"><circle cx="25" cy="43" r="1"/><circle cx="29" cy="43" r="1"/><circle cx="32" cy="40" r="1"/><circle cx="27" cy="39" r="1"/><circle cx="31" cy="36" r="1"/><path d="m61.27 2.13a1 1 0 0 0 -1.37.37l-11.78 20.41-6.07-3.5 9.19-15.91a1 1 0 1 0 -1.73-1l-9.19 15.91-2.6-1.5a1 1 0 0 0 -1.36.37l-2.49 4.31-13.87-7.98a12 12 0 0 0 -12 20.78l.65.38a1 1 0 0 0 1-1.74l-.65-.37a10 10 0 0 1 -3.66-13.66 10 10 0 0 1 13.66-3.66l11.9 6.87 2.84 1.61a1 1 0 0 0 1.36-.37l2.49-4.31 2.6 1.5 7.81 4.5 1.73 1-8.02 13.86a10 10 0 0 1 -3.71 3.68 1 1 0 0 0 .5 1.87 1 1 0 0 0 .49-.13 12 12 0 0 0 4.46-4.42l8.55-14.72a1 1 0 0 0 .1-.76 1 1 0 0 0 -.47-.61l-1.73-1 11.73-20.41a1 1 0 0 0 -.36-1.37z"/><path d="m11.6 27.23-3.06-1.77a1 1 0 0 0 -1.37.37 1 1 0 0 0 .37 1.36l3.06 1.81a1 1 0 0 0 1.4-.4 1 1 0 0 0 -.4-1.37z"/><path d="m8.81 21a1 1 0 0 0 .36 1.36l4.6 2.64a1 1 0 0 0 .5.13 1 1 0 0 0 .87-.5 1 1 0 0 0 -.37-1.36l-4.6-2.66a1 1 0 0 0 -1.36.39z"/><path d="m18.57 22a1 1 0 0 0 .5.13 1 1 0 0 0 .5-1.87l-6-3.48a1 1 0 0 0 -1.37.37 1 1 0 0 0 .37 1.36z"/><path d="m38 36a13 13 0 1 0 -24.24 6.5 1 1 0 0 0 1.73-1 11 11 0 1 1 15.81 3.5h-14.3a1 1 0 0 0 -1 1v3a1 1 0 0 0 .45.83 12.47 12.47 0 0 1 5.55 10.38v.79a1 1 0 0 0 2 0v-.79a14.43 14.43 0 0 0 -6-11.73v-1.48h14v1.48a14.43 14.43 0 0 0 -6 11.73v.79a1 1 0 0 0 2 0v-.79a12.47 12.47 0 0 1 5.55-10.38 1 1 0 0 0 .45-.83v-3a1 1 0 0 0 -.16-.5 13 13 0 0 0 4.16-9.5z"/></svg>