<svg xmlns="http://www.w3.org/2000/svg" width="22" height="11" viewBox="0 0 22 11">
    <g fill="none" fill-rule="evenodd">
        <path fill-rule="nonzero" d="M-1-7h24v24H-1z"/>
        <g fill="#333">
            <path d="M7.04 3.52h7.92v3.903H7.04zM20.85 2.459h-.55v5.755h.55c.635 0 1.15-.515 1.15-1.15V3.609c0-.635-.515-1.15-1.15-1.15zM18.146.025h-2.182v10.893h2.182c.635 0 1.15-.515 1.15-1.15V1.175c0-.635-.515-1.15-1.15-1.15zM2.704 1.175v8.593c0 .635.515 1.15 1.15 1.15h2.182V.025H3.854c-.635 0-1.15.515-1.15 1.15zM0 3.609v3.455c0 .635.515 1.15 1.15 1.15h.55V2.46h-.55c-.635 0-1.15.515-1.15 1.15z"/>
        </g>
    </g>
</svg>
