<svg xmlns="http://www.w3.org/2000/svg" width="22" height="24" viewBox="0 0 22 24">
    <g fill="none" fill-rule="evenodd">
        <path d="M-1 0h24v24H-1z"/>
        <g fill="#333">
            <path d="M11.043 6.577a.657.657 0 0 0 .657-.658V1.463a.657.657 0 1 0-1.315 0V5.92c0 .363.295.658.658.658zM21.341 11.011h-4.554a.657.657 0 1 0 0 1.315h4.555a.657.657 0 1 0 0-1.315zM5.94 11.668a.657.657 0 0 0-.657-.657H.657a.657.657 0 1 0 0 1.315h4.626a.657.657 0 0 0 .658-.658zM15.709 10.018a1.96 1.96 0 0 1 1.078-.322h.352a6.43 6.43 0 0 0-4.124-4.11v.333c0 .402-.121.776-.328 1.088a4.97 4.97 0 0 1 3.022 3.011zM9.07 5.586a6.43 6.43 0 0 0-4.124 4.11h.337c.403 0 .778.122 1.09.33A4.971 4.971 0 0 1 9.4 7.006 1.961 1.961 0 0 1 9.07 5.92v-.333zM16.787 13.64a1.96 1.96 0 0 1-1.078-.32 4.921 4.921 0 0 1-.458.948c.416.3.756.682 1.004 1.115a6.373 6.373 0 0 0 .884-1.742h-.352zM6.373 13.311c-.312.208-.687.33-1.09.33h-.337c.203.623.5 1.204.873 1.727a3.508 3.508 0 0 1 1.006-1.115 4.918 4.918 0 0 1-.452-.942zM18.51 9.696h1.5a9.199 9.199 0 0 0-6.995-6.971v1.491a7.745 7.745 0 0 1 5.495 5.48zM9.07 4.216V2.725a9.199 9.199 0 0 0-6.994 6.971h1.5a7.745 7.745 0 0 1 5.495-5.48zM16.715 16.894c.005.083.009.167.009.25v1.713a9.17 9.17 0 0 0 3.285-5.216h-1.5a7.7 7.7 0 0 1-1.794 3.253zM2.076 13.64a9.17 9.17 0 0 0 3.286 5.217v-1.758c0-.07.002-.14.006-.208a7.698 7.698 0 0 1-1.792-3.25h-1.5zM14.413 15.286a4.937 4.937 0 0 1-3.37 1.325 4.937 4.937 0 0 1-3.383-1.337 2.188 2.188 0 0 0-.984 1.825v5.488c0 .363.295.657.658.657h7.417a.657.657 0 0 0 .658-.657v-5.442c0-.775-.396-1.458-.996-1.86z"/>
            <path d="M11.043 8.04a3.636 3.636 0 0 0-3.637 3.628 3.636 3.636 0 0 0 7.273 0c0-2-1.631-3.627-3.636-3.627z"/>
        </g>
    </g>
</svg>
