<svg xmlns="http://www.w3.org/2000/svg" width="22" height="15" viewBox="0 0 22 15">
    <g fill="none" fill-rule="evenodd">
        <path fill-rule="nonzero" d="M-1-5h24v24H-1z"/>
        <g fill="#333">
            <path d="M2.793 3l5.086.654c.178.451 1.072 2.67 1.24 3.067h-.002L4.696 8.904a8.626 8.626 0 0 1 1.55-.14c.683 0 1.35.082 1.988.243 1.287.327 2.45.85 3.573 1.357 1.002.45 1.95.878 2.896 1.123.134.035.262.066.39.091-1.12-2.295-4.136-8.482-4.731-9.843-.28-.643-.666-.88-1.212-.951L3.176.016a1.508 1.508 0 0 0-1.687 1.3A1.508 1.508 0 0 0 2.793 3z"/>
            <path d="M.39 13.73a.926.926 0 0 0 .665.165.934.934 0 0 0 .638-.38c.605-.844 1.541-1.507 2.632-1.871a6.123 6.123 0 0 1 1.922-.313c2.328 0 4.325 1.392 6.427 2.193 1.126.43 2.3.747 3.578.747.537 0 1.093-.056 1.67-.184 1.357-.3 2.52-.944 3.36-1.848.201-.217.383-.446.545-.69a.934.934 0 0 0-1.558-1.03c-.073.109-.152.214-.238.317-.584.696-1.46 1.196-2.511 1.427-.97.212-2.039.15-2.994-.098-1.004-.262-1.976-.699-3.008-1.163-1.098-.493-2.23-1.005-3.459-1.318a7.328 7.328 0 0 0-1.815-.221c-.843 0-1.7.137-2.515.408a7.577 7.577 0 0 0-1.966.988 6.707 6.707 0 0 0-1.59 1.565.94.94 0 0 0 .217 1.306z"/>
            <circle cx="17.303" cy="6.099" r="3.295"/>
        </g>
    </g>
</svg>
