<svg height="512" viewBox="0 0 64 64" width="512" xmlns="http://www.w3.org/2000/svg"><path d="m56.43 9-1.43-1.44a19 19 0 0 0 -26.87 0 1.12 1.12 0 0 0 -.24.44h-7.89a1 1 0 0 0 0 2h15a1 1 0 0 0 0-2h-4.35a17 17 0 0 1 23 1l1.35 1.39a17 17 0 0 1 0 24l-12 12-24.16-24.1a1 1 0 0 0 -1.42 1.42l24.12 24.12a9 9 0 0 1 -12-.67l-12.7-12.72a9 9 0 0 1 -1.38-10.93 1 1 0 0 0 -1.73-1 11 11 0 0 0 1.69 13.36l2.69 2.68-13.83 11.9a6.6 6.6 0 0 0 -2.28 4.73 6.68 6.68 0 0 0 1.92 4.9 6.62 6.62 0 0 0 4.65 1.92h.24a6.62 6.62 0 0 0 4.74-2.28l10-11.6a1 1 0 0 0 -1.55-1.31l-10 11.6a4.55 4.55 0 0 1 -6.69.25 4.57 4.57 0 0 1 .28-6.66l13.93-12 8.63 8.63a11 11 0 0 0 15.56 0l12.72-12.78a19 19 0 0 0 0-26.85z"/><path d="m43 22a7 7 0 1 0 -7-7 7 7 0 0 0 7 7zm0-12a5 5 0 1 1 -5 5 5 5 0 0 1 5-5z"/><path d="m14 10h2a1 1 0 0 0 0-2h-2a1 1 0 0 0 0 2z"/><path d="m14 15h18a1 1 0 0 0 0-2h-18a1 1 0 0 0 0 2z"/><path d="m12 20h17a1 1 0 0 0 0-2h-17a1 1 0 0 0 0 2z"/><circle cx="10" cy="14" r="1"/><circle cx="7" cy="19" r="1"/><circle cx="10" cy="9" r="1"/><path d="m33.39 27.75a1 1 0 0 0 1.4.18 4.62 4.62 0 0 1 7.21 2.35 1 1 0 0 0 1.92 0 4.62 4.62 0 0 1 7.25-2.35 1 1 0 0 0 1.55-1.13 4.62 4.62 0 0 1 4.48-6.17 1 1 0 0 0 1-1 1 1 0 0 0 -1-1 6.62 6.62 0 0 0 -6.8 6.67 6.6 6.6 0 0 0 -7.4 2.45 6.61 6.61 0 0 0 -9.43-1.41 1 1 0 0 0 -.18 1.41z"/></svg>