<svg xmlns="http://www.w3.org/2000/svg" width="22" height="17" viewBox="0 0 22 17">
    <g fill="none" fill-rule="nonzero">
        <path d="M-1-4h24v24H-1z"/>
        <path fill="#333" d="M11.022.027C6.64.027 0 1.472 0 5.839v5.166a.645.645 0 1 0 1.292 0V8.761c1.864 1.853 5.525 2.777 9.084 2.876v4.534a.645.645 0 1 0 1.291 0v-4.534c3.56-.1 7.22-1.023 9.084-2.876v2.244c0 .357.29.646.646.646.357 0 .603-.289.603-.646V5.839C22 1.473 15.43.027 11.022.027zm0 2.583c.97 0 5.812.093 5.812 1.937s-4.842 1.938-5.812 1.938c-.971 0-5.813-.094-5.813-1.938 0-1.844 4.842-1.937 5.813-1.937zm0 7.75c-4.696 0-9.73-1.585-9.73-4.521 0-.228.04-.445.097-.656.625 2.253 4.575 3.885 9.633 3.885 5.057 0 9.007-1.632 9.632-3.885.058.211.097.428.097.656 0 2.936-5.034 4.52-9.73 4.52z"/>
    </g>
</svg>
