<svg xmlns="http://www.w3.org/2000/svg" width="16" height="22" viewBox="0 0 16 22">
    <g fill="none" fill-rule="evenodd">
        <path fill-rule="nonzero" d="M-5-1h24v24H-5z"/>
        <g fill="#333">
            <path fill-rule="nonzero" d="M15.86 10.991l-1.696-4.525a1.44 1.44 0 0 0-1.854-.843l-1.208.453-1.92.343L7.19 4.507a.708.708 0 0 0-.576-.189L4.636.263a.361.361 0 0 0-.649.317l2.037 4.176a.72.72 0 0 0 .166.793l.416.399 2.642 5.415-.641 2.032-.909-.622a1.42 1.42 0 0 1-.598-.932l-.702-4.07a1.416 1.416 0 0 0-.15-.435L4.883 4.817 3.674.42a.573.573 0 0 0-.55-.42H.607a.572.572 0 0 0-.571.572v20.532c0 .316.256.572.571.572h11.974a.572.572 0 0 0 .493-.863l-2.055-3.478a1.436 1.436 0 0 1-.113-.24l-.8-2.214c.229-.131.412-.343.498-.614l.023-.073 3.595 7.37a.36.36 0 0 0 .483.165.361.361 0 0 0 .167-.483l-1.807-3.702c.014.001.028.008.043.008a1.083 1.083 0 0 0 1.055-1.334l-.608-2.573 1.942-1.174c.38-.23.62-.79.362-1.48zM8.117 7.4l.33.317a.723.723 0 0 0 .628.19l2.383-.426.909 2.427-1.54-.318a1.084 1.084 0 0 0-1.253.736l-.012.037-1.445-2.963zm2.827 5.793l.403-1.282.663.137-.25.151a1.083 1.083 0 0 0-.495 1.177l.218.924-.54-1.107z"/>
            <path d="M11.419 5.404a1.622 1.622 0 1 0 0-3.243 1.622 1.622 0 0 0 0 3.243z"/>
        </g>
    </g>
</svg>
